PathFileType   4   (X/Y/Z)																																																																																																																							
DataRate	CameraRate	NumFrames	NumMarkers	Units	OrigDataRate	OrigDataStartFrame	OrigNumFrames																																																																																																																
120	120	4	37	mm	120	79	156																																																																																																																
Frame#	Time	Sternum	R.Acromium	L.Acromium	Top.Head	R.ASIS	L.ASIS	V.Sacral	R.Thigh.Upper	R.Thigh.Front	R.Thigh.Rear	R.Knee.Lat	R.Knee.Med	R.Shank.Upper	R.Shank.Front	R.Shank.Rear	R.Ankle.Lat	R.Ankle.Med	R.Heel	R.Midfoot.Sup	R.Midfoot.Lat	R.Toe.Lat	R.Toe.Med	R.Toe.Tip	L.Thigh.Upper	L.Thigh.Front	L.Thigh.Rear	L.Knee.Lat	L.Knee.Med	L.Shank.Upper	L.Shank.Front	L.Shank.Rear	L.Ankle.Lat	L.Ankle.Med	L.Heel	L.Midfoot.Sup	L.Midfoot.Lat	L.Toe.Lat	L.Toe.Med	L.Toe.Tip																																																																															
 	 	X1	Y1	Z1	X2	Y2	Z2	X3	Y3	Z3	X4	Y4	Z4	X5	Y5	Z5	X6	Y6	Z6	X7	Y7	Z7	X8	Y8	Z8	X9	Y9	Z9	X10	Y10	Z10	X11	Y11	Z11	X12	Y12	Z12	X13	Y13	Z13	X14	Y14	Z14	X15	Y15	Z15	X16	Y16	Z16	X17	Y17	Z17	X18	Y18	Z18	X19	Y19	Z19	X20	Y20	Z20	X21	Y21	Z21	X22	Y22	Z22	X23	Y23	Z23	X24	Y24	Z24	X25	Y25	Z25	X26	Y26	Z26	X27	Y27	Z27	X28	Y28	Z28	X29	Y29	Z29	X30	Y30	Z30	X31	Y31	Z31	X32	Y32	Z32	X33	Y33	Z33	X34	Y34	Z34	X35	Y35	Z35	X36	Y36	Z36	X37	Y37	Z37	X38	Y38	Z38	X39	Y39	Z39	
																																																																																																																							
	79	0.86667	-1636.474765	-0.001002095	1338.35099	-1695.983933	-161.9453511	1418.969338	-1693.368671	165.1979949	1418.118625	-1546.538136	-10.08809499	1616.343236	-1679.778138	-117.7896216	1006.577575	-1673.452845	119.399185	999.7228698	-1855.850032	-5.611229398	993.4908768	-1618.756241	-173.4115572	697.2709002	-1535.828337	-67.95180237	654.9933314	-1584.339989	-162.9734513	567.447374	-1593.486133	-142.5943975	463.5147367	-1589.046192	-8.355853302	445.4844916	-1625.569208	-154.6508593	423.5617476	-1538.297699	-93.81404015	392.8104745	-1598.471815	-165.0122006	330.5865796	-1564.306728	-136.9768135	13.49952112	-1557.264395	-37.22329306	30.50093542	-1634.954631	-79.10633289	-14.11777909	-1483.380504	-41.71858376	1.403896752	-1488.47204	-155.3841374	-19.64378045	-1393.054738	-165.0174344	-42.86942842	-1390.902743	-50.15543807	-28.96874026	-1326.384147	-83.79364801	-26.99083224	-1755.508605	178.8034865	673.5777661	-1678.079636	95.03600439	613.3135678	-1786.936805	161.7547942	556.9026781	-1840.579289	144.5366564	420.261831	-1839.107992	15.87918741	420.8040499	-1871.685083	162.4477689	403.5244528	-1861.629597	100.5194763	329.7078978	-1914.471329	174.5177999	374.130229	-2093.326982	136.4325857	71.92260707	-2075.100193	34.31683281	91.05397301	-2177.013791	76.11439987	88.06568416	-2008.713228	48.15109198	17.27183164	-2026.548736	152.6198727	25.09331134	-1975.070013	163.716336	-24.36564873	-1958.546114	55.50675189	-31.63534699	-1910.466489	82.30973808	-51.75995098
	80	0.875	-1630.202912	-0.001002095	1339.730429	-1689.919842	-161.9453511	1420.195001	-1687.302395	165.1979949	1419.351037	-1540.983681	-10.08809499	1617.953747	-1672.730063	-117.7896216	1007.542984	-1666.405119	119.399185	1000.687958	-1848.802622	-5.611229398	994.4652332	-1612.925822	-173.4115572	697.4540869	-1530.243719	-67.95180237	654.6978028	-1579.260679	-162.9734513	567.4337635	-1589.007524	-142.5943975	463.5557385	-1584.671894	-8.355853302	445.5001266	-1621.528353	-154.6508593	423.8597462	-1534.555482	-93.81404015	392.2737264	-1595.32301	-165.0122006	330.6292226	-1564.197539	-136.9768135	13.2293788	-1556.992636	-37.22329306	30.16253934	-1635.082033	-79.10633289	-13.77629777	-1483.378478	-41.71858376	0.4247441	-1488.653122	-155.3841374	-20.57779318	-1393.441709	-165.0174344	-44.633541	-1391.168736	-50.15543807	-30.75212153	-1326.635361	-83.79364801	-29.33617513	-1746.983233	178.8034865	674.5505956	-1669.172494	95.03600439	614.7801363	-1777.668635	161.7547942	557.6779556	-1830.440872	144.5366564	420.6986571	-1828.973054	15.87918741	421.2502239	-1862.685694	162.4477689	404.4068845	-1853.715166	100.5194763	330.4506393	-1905.898932	174.5177999	375.6440746	-2089.172721	136.4325857	76.09523085	-2070.666985	34.31683281	94.95690417	-2172.14134	76.11439987	95.59704455	-2006.94382	48.15109198	17.83697293	-2024.437158	152.6198727	26.39641334	-1975.068668	163.716336	-25.16907692	-1958.862753	55.50675189	-33.12244643	-1911.665438	82.30973808	-55.23722692
	81	0.88333	-1624.064712	-0.001002095	1341.200555	-1684.010083	-161.9453511	1421.495084	-1681.390248	165.1979949	1420.658563	-1535.63656	-10.08809499	1619.676313	-1665.737869	-117.7896216	1008.550117	-1659.413853	119.399185	1001.694235	-1841.812197	-5.611229398	995.4962131	-1607.306959	-173.4115572	697.6017287	-1524.902681	-67.95180237	654.3124103	-1574.482134	-162.9734513	567.3667211	-1584.899576	-142.5943975	463.553803	-1580.680631	-8.355853302	445.4705699	-1617.815865	-154.6508593	424.1180309	-1531.13178	-93.81404015	391.747886	-1592.453514	-165.0122006	330.6546602	-1564.195607	-136.9768135	12.98667856	-1556.838083	-37.22329306	29.8540844	-1635.257597	-79.10633289	-13.55226334	-1483.461651	-41.71858376	-0.375421477	-1488.877926	-155.3841374	-21.34188081	-1393.831037	-165.0174344	-46.03968093	-1391.464428	-50.15543807	-32.17391835	-1326.922967	-83.79364801	-31.1935524	-1738.346312	178.8034865	675.5831431	-1660.112221	95.03600439	616.3678926	-1768.19928	161.7547942	558.4951071	-1819.995446	144.5366564	421.1437534	-1818.53159	15.87918741	421.7057511	-1853.388078	162.4477689	405.2942288	-1845.476981	100.5194763	331.2171666	-1897.008563	174.5177999	377.1528623	-2084.550926	136.4325857	80.25784135	-2065.777124	34.31683281	98.85271591	-2166.605354	76.11439987	103.2920722	-2005.02624	48.15109198	18.26831634	-2022.121964	152.6198727	27.5966123	-1975.093528	163.716336	-26.11161635	-1959.257025	55.50675189	-34.77723385	-1913.088989	82.30973808	-58.96736604
	82	0.89167	-1618.036557	-0.001002095	1342.726426	-1678.223102	-161.9453511	1422.840337	-1675.600764	165.1979949	1422.011698	-1530.446178	-10.08809499	1621.466827	-1658.807618	-117.7896216	1009.57803	-1652.485224	119.399185	1002.720652	-1834.88503	-5.611229398	996.5657729	-1601.895081	-173.4115572	697.7056687	-1519.798829	-67.95180237	653.8350001	-1569.991574	-162.9734513	567.241909	-1581.142503	-142.5943975	463.5052142	-1577.051475	-8.355853302	445.3926135	-1614.414714	-154.6508593	424.3314704	-1528.009208	-93.81404015	391.224892	-1589.848572	-165.0122006	330.655672	-1564.294764	-136.9768135	12.758741	-1556.793979	-37.22329306	29.56293011	-1635.483377	-79.10633289	-13.4448308	-1483.623659	-41.71858376	-1.024507417	-1489.144336	-155.3841374	-21.96371876	-1394.22169	-165.0174344	-47.1348032	-1391.786021	-50.15543807	-33.28100487	-1327.240476	-83.79364801	-32.62224236	-1729.601268	178.8034865	676.659559	-1650.902416	95.03600439	618.0634037	-1758.529505	161.7547942	559.3396331	-1809.240383	144.5366564	421.5838926	-1807.781007	15.87918741	422.1574223	-1843.788967	162.4477689	406.1704121	-1836.909764	100.5194763	331.990407	-1887.796944	174.5177999	378.6389542	-2079.453814	136.4325857	84.38322264	-2060.422997	34.31683281	102.7149708	-2160.379999	76.11439987	111.0857037	-2002.957185	48.15109198	18.59296435	-2019.597597	152.6198727	28.71114472	-1975.134323	163.716336	-27.13923422	-1959.720738	55.50675189	-36.53652878	-1914.735427	82.30973808	-62.86088897
